<svg xmlns="http://www.w3.org/2000/svg" width="32" height="32"><g fill="none"><path fill="#000" d="M12.885 21.552c.15.136.254.233.575.538.314.298.466.439.605.557.058.049.107.179.127.373a2.447 2.447 0 0 1-.026.631.375.375 0 0 0 .365.443c.209.002.37.005.797.012l.214.004c1.16.02 1.753.014 2.178-.039.455-.057.923-.606 1.328-1.295.343.61.818 1.205 1.299 1.282.152.024.337.032.551.027a7.636 7.636 0 0 0 .79-.06.375.375 0 0 0 .314-.471 3.474 3.474 0 0 1-.105-.609 1.522 1.522 0 0 1-.003-.192 6.56 6.56 0 0 0 .01-.28l.002-.088c.006-.135.024-.263.082-.542.026-.121.148-.353.34-.64a12.784 12.784 0 0 1 .769-1.005c.296-.425.612-1.12.728-1.526.111-.39.2-1.11.255-1.816.03-.401.041-.724.041-1.231v-.384a21.874 21.874 0 0 0-.02-.694c-.032-.814-.478-1.34-1.135-1.442-.559-.086-1.239.378-1.239.378s-.151-.522-.254-.684c-.166-.26-.594-.59-.921-.654a3.137 3.137 0 0 0-1.102.007c-.32.057-.64.343-.825.652-.132.22-.008-.011-.14-.24-.183-.313-.61-.594-1.015-.677a2.312 2.312 0 0 0-1.098.062c-.463.139-.537.491-.556.39-.061-.338-.067-.316-.105-.557-.143-.895-.302-1.515-.544-2.055l-.126-.283a4.554 4.554 0 0 0-.2-.386c-.219-.374-.47-.654-.783-.813-.546-.276-1.364-.142-1.751.31-.385.45-.45 1.202-.352 2.133.037.361.166 1.02.284 1.508a56.242 56.242 0 0 1 .168.705c.052.216.097.394.151.588a93 93 0 0 1 .12.425l.014.054a15.797 15.797 0 0 1 .243 1.083c.089.47.089.372.003.272a6.238 6.238 0 0 0-.168-.19 2.814 2.814 0 0 0-.278-.268c-.635-.519-1.024-.748-1.557-.798-.876-.085-1.706.534-1.831 1.368-.077.512-.052.748.184 1.2.13.244.35.54.762 1.047l.05.062c.505.622.56.691.68.865.324.47 1.114 1.822 1.257 2.004z"/><path fill="#fff" d="m10.683 17.272-.05-.062c-.377-.466-.584-.743-.682-.926-.152-.291-.16-.37-.106-.737.065-.433.532-.78 1.019-.734.336.032.63.205 1.153.633.057.046.125.113.203.197.046.05.095.105.148.167.08.093.347.42.308.373.058.07.1.124.147.19.094.135.147.21.219.305-.034-.045.214.298.267.349.278.265.682.041.657-.313a1.323 1.323 0 0 0-.048-.235 28.144 28.144 0 0 0-.246-1.567 16.487 16.487 0 0 0-.255-1.136l-.016-.058a90.795 90.795 0 0 0-.12-.43 15.486 15.486 0 0 1-.145-.561l-.022-.095a56.581 56.581 0 0 0-.146-.614 13.458 13.458 0 0 1-.267-1.407c-.076-.725-.024-1.335.175-1.567.156-.182.597-.254.843-.13.161.082.322.262.474.522.058.099.112.204.168.324l.121.273c.21.47.355 1.031.488 1.867a39.925 39.925 0 0 0 .188 1.075c.301 1.635.28 1.51.284 1.641.016.476.718.487.749.012a6.01 6.01 0 0 0-.011-.671l-.005-.11c-.015-.355-.015-.56.007-.676.038-.213.228-.45.404-.503.246-.073.516-.092.733-.047.207.042.448.202.518.32.083.145.155.364.21.636.044.22.074.455.096.706.007.078.01.139.018.239l.005.076.006.045a.4.4 0 0 0 .017.068c.007.137.007.137.56.189.166-.2.166-.2.162-.235.027-.119.043-.25.067-.498.015-.162.023-.24.032-.323.036-.34.083-.556.14-.651.07-.118.32-.283.432-.303.28-.05.588-.055.826-.009.108.021.37.224.433.321.127.202.252.852.322 1.496-.011.043-.011.043.16.288.59-.067.59-.067.574-.174.016-.038.028-.082.046-.15.042-.16.07-.253.111-.356a1.12 1.12 0 0 1 .09-.183c.122-.19.434-.319.708-.276.294.045.482.266.5.729a21.353 21.353 0 0 1 .02.885v.164c0 .489-.011.793-.04 1.174-.05.653-.136 1.343-.228 1.667-.095.33-.377.95-.6 1.273a13.519 13.519 0 0 0-.8 1.046c-.243.364-.4.661-.45.905-.066.316-.09.484-.097.666l-.003.101a5.904 5.904 0 0 1-.009.252c-.005.091-.004.187.004.29.01.145 0 .345 0 .345s-.127-.012-.268-.009a2.472 2.472 0 0 1-.415-.017c-.143-.023-.53-.507-.728-.883-.302-.577-1.036-.549-1.336-.04-.272.462-.66.917-.775.932-.375.047-.955.052-2.072.033l-.214-.004c-.428-.007-.412.065-.403-.012.025-.22.022-.18 0-.4-.037-.369-.151-.67-.389-.87-.123-.104-.27-.24-.565-.521-.337-.32-.443-.42-.573-.534l-.801-.89c-.088-.113-.86-1.434-1.213-1.946-.137-.198-.188-.263-.714-.911zm9.508.003v3.46c0 .5.75.5.75 0v-3.46c0-.5-.75-.5-.75 0zm-2.031 0 .016 3.473c.002.5.752.496.75-.004l-.016-3.473c-.003-.5-.752-.496-.75.004zm-1.21 3.453-.02-3.426c-.003-.5-.753-.495-.75.005l.02 3.426c.004.5.754.495.75-.005z"/></g></svg>
